<mxfile host="app.diagrams.net" modified="2020-12-31T08:44:27.827Z" agent="5.0 (Macintosh; Intel Mac OS X 10_15_6) AppleWebKit/537.36 (KHTML, like Gecko) Chrome/87.0.4280.88 Safari/537.36" etag="0xb-Nh5UiT5GJ5YIX-ZQ" version="14.1.2" type="github">
  <diagram id="vkNS-ux78XkrAzjE5yEm" name="Page-1">
    <mxGraphModel dx="786" dy="427" grid="1" gridSize="10" guides="1" tooltips="1" connect="1" arrows="1" fold="1" page="1" pageScale="1" pageWidth="827" pageHeight="1169" background="#114B5F" math="0" shadow="0">
      <root>
        <mxCell id="0" />
        <mxCell id="1" parent="0" />
        <mxCell id="_N30-8KWYY2U87UxxjHT-1" value="" style="shape=table;html=1;whiteSpace=wrap;startSize=0;container=1;collapsible=0;childLayout=tableLayout;fontFamily=Architects Daughter;fontSource=https%3A%2F%2Ffonts.googleapis.com%2Fcss%3Ffamily%3DArchitects%2BDaughter;comic=1;fillColor=#F45B69;strokeColor=#028090;fontColor=#E4FDE1;" parent="1" vertex="1">
          <mxGeometry x="40" y="80" width="140" height="270" as="geometry" />
        </mxCell>
        <mxCell id="_N30-8KWYY2U87UxxjHT-2" value="" style="shape=partialRectangle;html=1;whiteSpace=wrap;collapsible=0;dropTarget=0;pointerEvents=0;fillColor=none;top=0;left=0;bottom=0;right=0;points=[[0,0.5],[1,0.5]];portConstraint=eastwest;strokeColor=#028090;fontColor=#E4FDE1;" parent="_N30-8KWYY2U87UxxjHT-1" vertex="1">
          <mxGeometry width="140" height="45" as="geometry" />
        </mxCell>
        <mxCell id="_N30-8KWYY2U87UxxjHT-3" value="&lt;font face=&quot;Architects Daughter&quot; data-font-src=&quot;https://fonts.googleapis.com/css?family=Architects+Daughter&quot;&gt;secion name&lt;/font&gt;" style="shape=partialRectangle;html=1;whiteSpace=wrap;connectable=0;overflow=hidden;fillColor=none;top=0;left=0;bottom=0;right=0;strokeColor=#028090;fontColor=#E4FDE1;" parent="_N30-8KWYY2U87UxxjHT-2" vertex="1">
          <mxGeometry width="140" height="45" as="geometry" />
        </mxCell>
        <mxCell id="_N30-8KWYY2U87UxxjHT-4" value="" style="shape=partialRectangle;html=1;whiteSpace=wrap;collapsible=0;dropTarget=0;pointerEvents=0;fillColor=none;top=0;left=0;bottom=0;right=0;points=[[0,0.5],[1,0.5]];portConstraint=eastwest;strokeColor=#028090;fontColor=#E4FDE1;" parent="_N30-8KWYY2U87UxxjHT-1" vertex="1">
          <mxGeometry y="45" width="140" height="45" as="geometry" />
        </mxCell>
        <mxCell id="_N30-8KWYY2U87UxxjHT-5" value="&lt;font face=&quot;Architects Daughter&quot;&gt;segment name&lt;/font&gt;" style="shape=partialRectangle;html=1;whiteSpace=wrap;connectable=0;overflow=hidden;fillColor=none;top=0;left=0;bottom=0;right=0;strokeColor=#028090;fontColor=#E4FDE1;" parent="_N30-8KWYY2U87UxxjHT-4" vertex="1">
          <mxGeometry width="140" height="45" as="geometry" />
        </mxCell>
        <mxCell id="_N30-8KWYY2U87UxxjHT-6" value="" style="shape=partialRectangle;html=1;whiteSpace=wrap;collapsible=0;dropTarget=0;pointerEvents=0;fillColor=none;top=0;left=0;bottom=0;right=0;points=[[0,0.5],[1,0.5]];portConstraint=eastwest;strokeColor=#028090;fontColor=#E4FDE1;" parent="_N30-8KWYY2U87UxxjHT-1" vertex="1">
          <mxGeometry y="90" width="140" height="45" as="geometry" />
        </mxCell>
        <mxCell id="_N30-8KWYY2U87UxxjHT-7" value="&lt;font face=&quot;Architects Daughter&quot; data-font-src=&quot;https://fonts.googleapis.com/css?family=Architects+Daughter&quot;&gt;address&lt;/font&gt;" style="shape=partialRectangle;html=1;whiteSpace=wrap;connectable=0;overflow=hidden;fillColor=none;top=0;left=0;bottom=0;right=0;strokeColor=#028090;fontColor=#E4FDE1;" parent="_N30-8KWYY2U87UxxjHT-6" vertex="1">
          <mxGeometry width="140" height="45" as="geometry" />
        </mxCell>
        <mxCell id="_N30-8KWYY2U87UxxjHT-8" value="" style="shape=partialRectangle;html=1;whiteSpace=wrap;collapsible=0;dropTarget=0;pointerEvents=0;fillColor=none;top=0;left=0;bottom=0;right=0;points=[[0,0.5],[1,0.5]];portConstraint=eastwest;strokeColor=#028090;fontColor=#E4FDE1;" parent="_N30-8KWYY2U87UxxjHT-1" vertex="1">
          <mxGeometry y="135" width="140" height="45" as="geometry" />
        </mxCell>
        <mxCell id="_N30-8KWYY2U87UxxjHT-9" value="size" style="shape=partialRectangle;html=1;whiteSpace=wrap;connectable=0;overflow=hidden;fillColor=none;top=0;left=0;bottom=0;right=0;fontFamily=Architects Daughter;fontSource=https%3A%2F%2Ffonts.googleapis.com%2Fcss%3Ffamily%3DArchitects%2BDaughter;strokeColor=#028090;fontColor=#E4FDE1;" parent="_N30-8KWYY2U87UxxjHT-8" vertex="1">
          <mxGeometry width="140" height="45" as="geometry" />
        </mxCell>
        <mxCell id="_N30-8KWYY2U87UxxjHT-10" value="" style="shape=partialRectangle;html=1;whiteSpace=wrap;collapsible=0;dropTarget=0;pointerEvents=0;fillColor=none;top=0;left=0;bottom=0;right=0;points=[[0,0.5],[1,0.5]];portConstraint=eastwest;strokeColor=#028090;fontColor=#E4FDE1;" parent="_N30-8KWYY2U87UxxjHT-1" vertex="1">
          <mxGeometry y="180" width="140" height="45" as="geometry" />
        </mxCell>
        <mxCell id="_N30-8KWYY2U87UxxjHT-11" value="indirect sym index = 1" style="shape=partialRectangle;html=1;whiteSpace=wrap;connectable=0;overflow=hidden;fillColor=none;top=0;left=0;bottom=0;right=0;fontFamily=Architects Daughter;fontSource=https%3A%2F%2Ffonts.googleapis.com%2Fcss%3Ffamily%3DArchitects%2BDaughter;strokeColor=#028090;fontColor=#E4FDE1;" parent="_N30-8KWYY2U87UxxjHT-10" vertex="1">
          <mxGeometry width="140" height="45" as="geometry" />
        </mxCell>
        <mxCell id="_N30-8KWYY2U87UxxjHT-12" style="shape=partialRectangle;html=1;whiteSpace=wrap;collapsible=0;dropTarget=0;pointerEvents=0;fillColor=none;top=0;left=0;bottom=0;right=0;points=[[0,0.5],[1,0.5]];portConstraint=eastwest;strokeColor=#028090;fontColor=#E4FDE1;" parent="_N30-8KWYY2U87UxxjHT-1" vertex="1">
          <mxGeometry y="225" width="140" height="45" as="geometry" />
        </mxCell>
        <mxCell id="_N30-8KWYY2U87UxxjHT-13" value="..." style="shape=partialRectangle;html=1;whiteSpace=wrap;connectable=0;overflow=hidden;fillColor=none;top=0;left=0;bottom=0;right=0;strokeColor=#028090;fontColor=#E4FDE1;" parent="_N30-8KWYY2U87UxxjHT-12" vertex="1">
          <mxGeometry width="140" height="45" as="geometry" />
        </mxCell>
        <mxCell id="_N30-8KWYY2U87UxxjHT-15" value="&lt;font face=&quot;Architects Daughter&quot; data-font-src=&quot;https://fonts.googleapis.com/css?family=Architects+Daughter&quot;&gt;__got Section Header&lt;/font&gt;" style="text;html=1;align=center;verticalAlign=middle;resizable=0;points=[];autosize=1;fontColor=#E4FDE1;" parent="1" vertex="1">
          <mxGeometry x="40" y="40" width="140" height="20" as="geometry" />
        </mxCell>
        <mxCell id="PgL75ExUxGhHG7wn5KcB-3" value="" style="shape=table;html=1;whiteSpace=wrap;startSize=0;container=1;collapsible=0;childLayout=tableLayout;strokeColor=#028090;fontColor=#E4FDE1;comic=1;fillColor=#28ABB9;" parent="1" vertex="1">
          <mxGeometry x="324" y="80" width="60" height="240" as="geometry" />
        </mxCell>
        <mxCell id="PgL75ExUxGhHG7wn5KcB-4" value="" style="shape=partialRectangle;html=1;whiteSpace=wrap;collapsible=0;dropTarget=0;pointerEvents=0;fillColor=none;top=0;left=0;bottom=0;right=0;points=[[0,0.5],[1,0.5]];portConstraint=eastwest;strokeColor=#028090;fontColor=#E4FDE1;" parent="PgL75ExUxGhHG7wn5KcB-3" vertex="1">
          <mxGeometry width="60" height="31" as="geometry" />
        </mxCell>
        <mxCell id="PgL75ExUxGhHG7wn5KcB-5" value="" style="shape=partialRectangle;html=1;whiteSpace=wrap;connectable=0;overflow=hidden;fillColor=none;top=0;left=0;bottom=0;right=0;strokeColor=#028090;fontColor=#E4FDE1;" parent="PgL75ExUxGhHG7wn5KcB-4" vertex="1">
          <mxGeometry width="60" height="31" as="geometry" />
        </mxCell>
        <mxCell id="PgL75ExUxGhHG7wn5KcB-6" value="" style="shape=partialRectangle;html=1;whiteSpace=wrap;collapsible=0;dropTarget=0;pointerEvents=0;fillColor=none;top=0;left=0;bottom=0;right=0;points=[[0,0.5],[1,0.5]];portConstraint=eastwest;strokeColor=#028090;fontColor=#E4FDE1;" parent="PgL75ExUxGhHG7wn5KcB-3" vertex="1">
          <mxGeometry y="31" width="60" height="42" as="geometry" />
        </mxCell>
        <mxCell id="PgL75ExUxGhHG7wn5KcB-7" value="3" style="shape=partialRectangle;html=1;whiteSpace=wrap;connectable=0;overflow=hidden;fillColor=none;top=0;left=0;bottom=0;right=0;strokeColor=#028090;fontColor=#E4FDE1;fontFamily=Architects Daughter;fontSource=https%3A%2F%2Ffonts.googleapis.com%2Fcss%3Ffamily%3DArchitects%2BDaughter;" parent="PgL75ExUxGhHG7wn5KcB-6" vertex="1">
          <mxGeometry width="60" height="42" as="geometry" />
        </mxCell>
        <mxCell id="PgL75ExUxGhHG7wn5KcB-8" value="" style="shape=partialRectangle;html=1;whiteSpace=wrap;collapsible=0;dropTarget=0;pointerEvents=0;fillColor=none;top=0;left=0;bottom=0;right=0;points=[[0,0.5],[1,0.5]];portConstraint=eastwest;strokeColor=#028090;fontColor=#E4FDE1;" parent="PgL75ExUxGhHG7wn5KcB-3" vertex="1">
          <mxGeometry y="73" width="60" height="42" as="geometry" />
        </mxCell>
        <mxCell id="PgL75ExUxGhHG7wn5KcB-9" value="" style="shape=partialRectangle;html=1;whiteSpace=wrap;connectable=0;overflow=hidden;fillColor=none;top=0;left=0;bottom=0;right=0;strokeColor=#028090;fontColor=#E4FDE1;fontFamily=Architects Daughter;fontSource=https%3A%2F%2Ffonts.googleapis.com%2Fcss%3Ffamily%3DArchitects%2BDaughter;" parent="PgL75ExUxGhHG7wn5KcB-8" vertex="1">
          <mxGeometry width="60" height="42" as="geometry" />
        </mxCell>
        <mxCell id="PgL75ExUxGhHG7wn5KcB-10" value="" style="shape=partialRectangle;html=1;whiteSpace=wrap;collapsible=0;dropTarget=0;pointerEvents=0;fillColor=none;top=0;left=0;bottom=0;right=0;points=[[0,0.5],[1,0.5]];portConstraint=eastwest;strokeColor=#028090;fontColor=#E4FDE1;" parent="PgL75ExUxGhHG7wn5KcB-3" vertex="1">
          <mxGeometry y="115" width="60" height="42" as="geometry" />
        </mxCell>
        <mxCell id="PgL75ExUxGhHG7wn5KcB-11" value="" style="shape=partialRectangle;html=1;whiteSpace=wrap;connectable=0;overflow=hidden;fillColor=none;top=0;left=0;bottom=0;right=0;strokeColor=#028090;fontColor=#E4FDE1;" parent="PgL75ExUxGhHG7wn5KcB-10" vertex="1">
          <mxGeometry width="60" height="42" as="geometry" />
        </mxCell>
        <mxCell id="PgL75ExUxGhHG7wn5KcB-12" value="" style="shape=partialRectangle;html=1;whiteSpace=wrap;collapsible=0;dropTarget=0;pointerEvents=0;fillColor=none;top=0;left=0;bottom=0;right=0;points=[[0,0.5],[1,0.5]];portConstraint=eastwest;strokeColor=#028090;fontColor=#E4FDE1;" parent="PgL75ExUxGhHG7wn5KcB-3" vertex="1">
          <mxGeometry y="157" width="60" height="41" as="geometry" />
        </mxCell>
        <mxCell id="PgL75ExUxGhHG7wn5KcB-13" value="" style="shape=partialRectangle;html=1;whiteSpace=wrap;connectable=0;overflow=hidden;fillColor=none;top=0;left=0;bottom=0;right=0;strokeColor=#028090;fontColor=#E4FDE1;" parent="PgL75ExUxGhHG7wn5KcB-12" vertex="1">
          <mxGeometry width="60" height="41" as="geometry" />
        </mxCell>
        <mxCell id="PgL75ExUxGhHG7wn5KcB-14" value="" style="shape=partialRectangle;html=1;whiteSpace=wrap;collapsible=0;dropTarget=0;pointerEvents=0;fillColor=none;top=0;left=0;bottom=0;right=0;points=[[0,0.5],[1,0.5]];portConstraint=eastwest;strokeColor=#028090;fontColor=#E4FDE1;" parent="PgL75ExUxGhHG7wn5KcB-3" vertex="1">
          <mxGeometry y="198" width="60" height="42" as="geometry" />
        </mxCell>
        <mxCell id="PgL75ExUxGhHG7wn5KcB-15" value="" style="shape=partialRectangle;html=1;whiteSpace=wrap;connectable=0;overflow=hidden;fillColor=none;top=0;left=0;bottom=0;right=0;strokeColor=#028090;fontColor=#E4FDE1;" parent="PgL75ExUxGhHG7wn5KcB-14" vertex="1">
          <mxGeometry width="60" height="42" as="geometry" />
        </mxCell>
        <mxCell id="PgL75ExUxGhHG7wn5KcB-16" value="&lt;font face=&quot;Architects Daughter&quot; data-font-src=&quot;https://fonts.googleapis.com/css?family=Architects+Daughter&quot;&gt;Indirect Symbol Table&lt;/font&gt;" style="text;html=1;align=center;verticalAlign=middle;resizable=0;points=[];autosize=1;fontColor=#E4FDE1;" parent="1" vertex="1">
          <mxGeometry x="298" y="40" width="130" height="20" as="geometry" />
        </mxCell>
        <mxCell id="PgL75ExUxGhHG7wn5KcB-18" style="edgeStyle=orthogonalEdgeStyle;curved=0;rounded=1;sketch=0;orthogonalLoop=1;jettySize=auto;html=1;exitX=1;exitY=0.5;exitDx=0;exitDy=0;entryX=0;entryY=0.5;entryDx=0;entryDy=0;strokeColor=#028090;fillColor=#F45B69;fontColor=#E4FDE1;labelBackgroundColor=#114B5F;" parent="1" source="_N30-8KWYY2U87UxxjHT-10" target="PgL75ExUxGhHG7wn5KcB-6" edge="1">
          <mxGeometry relative="1" as="geometry">
            <Array as="points">
              <mxPoint x="285" y="283" />
              <mxPoint x="285" y="132" />
            </Array>
          </mxGeometry>
        </mxCell>
        <mxCell id="SXaTfZlzJ0FdpsnXMxrj-1" value="" style="shape=table;html=1;whiteSpace=wrap;startSize=0;container=1;collapsible=0;childLayout=tableLayout;comic=1;fontFamily=Architects Daughter;fontSource=https%3A%2F%2Ffonts.googleapis.com%2Fcss%3Ffamily%3DArchitects%2BDaughter;fillColor=#FFC93C;" parent="1" vertex="1">
          <mxGeometry x="514" y="80" width="60" height="240" as="geometry" />
        </mxCell>
        <mxCell id="SXaTfZlzJ0FdpsnXMxrj-2" value="" style="shape=partialRectangle;html=1;whiteSpace=wrap;collapsible=0;dropTarget=0;pointerEvents=0;fillColor=none;top=0;left=0;bottom=0;right=0;points=[[0,0.5],[1,0.5]];portConstraint=eastwest;" parent="SXaTfZlzJ0FdpsnXMxrj-1" vertex="1">
          <mxGeometry width="60" height="40" as="geometry" />
        </mxCell>
        <mxCell id="SXaTfZlzJ0FdpsnXMxrj-3" value="" style="shape=partialRectangle;html=1;whiteSpace=wrap;connectable=0;overflow=hidden;fillColor=none;top=0;left=0;bottom=0;right=0;" parent="SXaTfZlzJ0FdpsnXMxrj-2" vertex="1">
          <mxGeometry width="60" height="40" as="geometry" />
        </mxCell>
        <mxCell id="SXaTfZlzJ0FdpsnXMxrj-4" value="" style="shape=partialRectangle;html=1;whiteSpace=wrap;collapsible=0;dropTarget=0;pointerEvents=0;fillColor=none;top=0;left=0;bottom=0;right=0;points=[[0,0.5],[1,0.5]];portConstraint=eastwest;" parent="SXaTfZlzJ0FdpsnXMxrj-1" vertex="1">
          <mxGeometry y="40" width="60" height="40" as="geometry" />
        </mxCell>
        <mxCell id="SXaTfZlzJ0FdpsnXMxrj-5" value="" style="shape=partialRectangle;html=1;whiteSpace=wrap;connectable=0;overflow=hidden;fillColor=none;top=0;left=0;bottom=0;right=0;" parent="SXaTfZlzJ0FdpsnXMxrj-4" vertex="1">
          <mxGeometry width="60" height="40" as="geometry" />
        </mxCell>
        <mxCell id="SXaTfZlzJ0FdpsnXMxrj-6" value="" style="shape=partialRectangle;html=1;whiteSpace=wrap;collapsible=0;dropTarget=0;pointerEvents=0;fillColor=none;top=0;left=0;bottom=0;right=0;points=[[0,0.5],[1,0.5]];portConstraint=eastwest;" parent="SXaTfZlzJ0FdpsnXMxrj-1" vertex="1">
          <mxGeometry y="80" width="60" height="40" as="geometry" />
        </mxCell>
        <mxCell id="SXaTfZlzJ0FdpsnXMxrj-7" value="" style="shape=partialRectangle;html=1;whiteSpace=wrap;connectable=0;overflow=hidden;fillColor=none;top=0;left=0;bottom=0;right=0;fontFamily=Architects Daughter;fontSource=https%3A%2F%2Ffonts.googleapis.com%2Fcss%3Ffamily%3DArchitects%2BDaughter;" parent="SXaTfZlzJ0FdpsnXMxrj-6" vertex="1">
          <mxGeometry width="60" height="40" as="geometry" />
        </mxCell>
        <mxCell id="SXaTfZlzJ0FdpsnXMxrj-8" value="" style="shape=partialRectangle;html=1;whiteSpace=wrap;collapsible=0;dropTarget=0;pointerEvents=0;fillColor=none;top=0;left=0;bottom=0;right=0;points=[[0,0.5],[1,0.5]];portConstraint=eastwest;" parent="SXaTfZlzJ0FdpsnXMxrj-1" vertex="1">
          <mxGeometry y="120" width="60" height="40" as="geometry" />
        </mxCell>
        <mxCell id="SXaTfZlzJ0FdpsnXMxrj-9" value="28" style="shape=partialRectangle;html=1;whiteSpace=wrap;connectable=0;overflow=hidden;fillColor=none;top=0;left=0;bottom=0;right=0;fontFamily=Architects Daughter;fontSource=https%3A%2F%2Ffonts.googleapis.com%2Fcss%3Ffamily%3DArchitects%2BDaughter;fontColor=#FFFFFF;" parent="SXaTfZlzJ0FdpsnXMxrj-8" vertex="1">
          <mxGeometry width="60" height="40" as="geometry" />
        </mxCell>
        <mxCell id="SXaTfZlzJ0FdpsnXMxrj-10" value="" style="shape=partialRectangle;html=1;whiteSpace=wrap;collapsible=0;dropTarget=0;pointerEvents=0;fillColor=none;top=0;left=0;bottom=0;right=0;points=[[0,0.5],[1,0.5]];portConstraint=eastwest;" parent="SXaTfZlzJ0FdpsnXMxrj-1" vertex="1">
          <mxGeometry y="160" width="60" height="40" as="geometry" />
        </mxCell>
        <mxCell id="SXaTfZlzJ0FdpsnXMxrj-11" value="" style="shape=partialRectangle;html=1;whiteSpace=wrap;connectable=0;overflow=hidden;fillColor=none;top=0;left=0;bottom=0;right=0;" parent="SXaTfZlzJ0FdpsnXMxrj-10" vertex="1">
          <mxGeometry width="60" height="40" as="geometry" />
        </mxCell>
        <mxCell id="SXaTfZlzJ0FdpsnXMxrj-12" value="" style="shape=partialRectangle;html=1;whiteSpace=wrap;collapsible=0;dropTarget=0;pointerEvents=0;fillColor=none;top=0;left=0;bottom=0;right=0;points=[[0,0.5],[1,0.5]];portConstraint=eastwest;" parent="SXaTfZlzJ0FdpsnXMxrj-1" vertex="1">
          <mxGeometry y="200" width="60" height="40" as="geometry" />
        </mxCell>
        <mxCell id="SXaTfZlzJ0FdpsnXMxrj-13" value="" style="shape=partialRectangle;html=1;whiteSpace=wrap;connectable=0;overflow=hidden;fillColor=none;top=0;left=0;bottom=0;right=0;" parent="SXaTfZlzJ0FdpsnXMxrj-12" vertex="1">
          <mxGeometry width="60" height="40" as="geometry" />
        </mxCell>
        <mxCell id="SXaTfZlzJ0FdpsnXMxrj-14" style="edgeStyle=orthogonalEdgeStyle;curved=0;rounded=1;sketch=0;orthogonalLoop=1;jettySize=auto;html=1;entryX=0;entryY=0.5;entryDx=0;entryDy=0;strokeColor=#028090;fillColor=#F45B69;fontColor=#E4FDE1;" parent="1" source="PgL75ExUxGhHG7wn5KcB-6" target="SXaTfZlzJ0FdpsnXMxrj-8" edge="1">
          <mxGeometry relative="1" as="geometry" />
        </mxCell>
        <mxCell id="SXaTfZlzJ0FdpsnXMxrj-25" value="symbol index" style="edgeLabel;html=1;align=center;verticalAlign=middle;resizable=0;points=[];fontFamily=Architects Daughter;fontColor=#FFFFFF;labelBackgroundColor=none;" parent="SXaTfZlzJ0FdpsnXMxrj-14" vertex="1" connectable="0">
          <mxGeometry x="-0.658" y="1" relative="1" as="geometry">
            <mxPoint x="6" y="-11" as="offset" />
          </mxGeometry>
        </mxCell>
        <mxCell id="SXaTfZlzJ0FdpsnXMxrj-15" value="Symbol Table" style="text;html=1;align=center;verticalAlign=middle;resizable=0;points=[];autosize=1;fontFamily=Architects Daughter;fontColor=#E4FDE1;" parent="1" vertex="1">
          <mxGeometry x="499" y="40" width="90" height="20" as="geometry" />
        </mxCell>
        <mxCell id="SXaTfZlzJ0FdpsnXMxrj-21" value="string index" style="text;html=1;align=center;verticalAlign=middle;resizable=0;points=[];autosize=1;fontFamily=Architects Daughter;fontColor=#FFFFFF;" parent="1" vertex="1">
          <mxGeometry x="589" y="200" width="80" height="20" as="geometry" />
        </mxCell>
        <mxCell id="SXaTfZlzJ0FdpsnXMxrj-22" style="edgeStyle=orthogonalEdgeStyle;curved=0;rounded=1;sketch=0;orthogonalLoop=1;jettySize=auto;html=1;strokeColor=#028090;fillColor=#F45B69;fontFamily=Architects Daughter;fontSource=https%3A%2F%2Ffonts.googleapis.com%2Fcss%3Ffamily%3DArchitects%2BDaughter;fontColor=#FFFFFF;entryX=0;entryY=0.5;entryDx=0;entryDy=0;" parent="1" source="SXaTfZlzJ0FdpsnXMxrj-8" edge="1" target="CAoHv5BWE8wGaD9P9ZTP-12">
          <mxGeometry relative="1" as="geometry">
            <mxPoint x="604" y="220" as="targetPoint" />
            <mxPoint x="540" y="220" as="sourcePoint" />
          </mxGeometry>
        </mxCell>
        <mxCell id="CAoHv5BWE8wGaD9P9ZTP-1" value="" style="shape=table;html=1;whiteSpace=wrap;startSize=0;container=1;collapsible=0;childLayout=tableLayout;comic=1;fontFamily=Architects Daughter;fontSource=https%3A%2F%2Ffonts.googleapis.com%2Fcss%3Ffamily%3DArchitects%2BDaughter;fillColor=#99FFCC;" vertex="1" parent="1">
          <mxGeometry x="700" y="80" width="60" height="240" as="geometry" />
        </mxCell>
        <mxCell id="CAoHv5BWE8wGaD9P9ZTP-2" value="" style="shape=partialRectangle;html=1;whiteSpace=wrap;collapsible=0;dropTarget=0;pointerEvents=0;fillColor=none;top=0;left=0;bottom=0;right=0;points=[[0,0.5],[1,0.5]];portConstraint=eastwest;" vertex="1" parent="CAoHv5BWE8wGaD9P9ZTP-1">
          <mxGeometry width="60" height="40" as="geometry" />
        </mxCell>
        <mxCell id="CAoHv5BWE8wGaD9P9ZTP-3" value="" style="shape=partialRectangle;html=1;whiteSpace=wrap;connectable=0;overflow=hidden;fillColor=none;top=0;left=0;bottom=0;right=0;" vertex="1" parent="CAoHv5BWE8wGaD9P9ZTP-2">
          <mxGeometry width="60" height="40" as="geometry" />
        </mxCell>
        <mxCell id="CAoHv5BWE8wGaD9P9ZTP-4" value="" style="shape=partialRectangle;html=1;whiteSpace=wrap;collapsible=0;dropTarget=0;pointerEvents=0;fillColor=none;top=0;left=0;bottom=0;right=0;points=[[0,0.5],[1,0.5]];portConstraint=eastwest;" vertex="1" parent="CAoHv5BWE8wGaD9P9ZTP-1">
          <mxGeometry y="40" width="60" height="40" as="geometry" />
        </mxCell>
        <mxCell id="CAoHv5BWE8wGaD9P9ZTP-5" value="" style="shape=partialRectangle;html=1;whiteSpace=wrap;connectable=0;overflow=hidden;fillColor=none;top=0;left=0;bottom=0;right=0;" vertex="1" parent="CAoHv5BWE8wGaD9P9ZTP-4">
          <mxGeometry width="60" height="40" as="geometry" />
        </mxCell>
        <mxCell id="CAoHv5BWE8wGaD9P9ZTP-6" value="" style="shape=partialRectangle;html=1;whiteSpace=wrap;collapsible=0;dropTarget=0;pointerEvents=0;fillColor=none;top=0;left=0;bottom=0;right=0;points=[[0,0.5],[1,0.5]];portConstraint=eastwest;" vertex="1" parent="CAoHv5BWE8wGaD9P9ZTP-1">
          <mxGeometry y="80" width="60" height="40" as="geometry" />
        </mxCell>
        <mxCell id="CAoHv5BWE8wGaD9P9ZTP-7" value="" style="shape=partialRectangle;html=1;whiteSpace=wrap;connectable=0;overflow=hidden;fillColor=none;top=0;left=0;bottom=0;right=0;" vertex="1" parent="CAoHv5BWE8wGaD9P9ZTP-6">
          <mxGeometry width="60" height="40" as="geometry" />
        </mxCell>
        <mxCell id="CAoHv5BWE8wGaD9P9ZTP-8" value="" style="shape=partialRectangle;html=1;whiteSpace=wrap;collapsible=0;dropTarget=0;pointerEvents=0;fillColor=none;top=0;left=0;bottom=0;right=0;points=[[0,0.5],[1,0.5]];portConstraint=eastwest;" vertex="1" parent="CAoHv5BWE8wGaD9P9ZTP-1">
          <mxGeometry y="120" width="60" height="40" as="geometry" />
        </mxCell>
        <mxCell id="CAoHv5BWE8wGaD9P9ZTP-9" value="" style="shape=partialRectangle;html=1;whiteSpace=wrap;connectable=0;overflow=hidden;fillColor=none;top=0;left=0;bottom=0;right=0;" vertex="1" parent="CAoHv5BWE8wGaD9P9ZTP-8">
          <mxGeometry width="60" height="40" as="geometry" />
        </mxCell>
        <mxCell id="CAoHv5BWE8wGaD9P9ZTP-10" value="" style="shape=partialRectangle;html=1;whiteSpace=wrap;collapsible=0;dropTarget=0;pointerEvents=0;fillColor=none;top=0;left=0;bottom=0;right=0;points=[[0,0.5],[1,0.5]];portConstraint=eastwest;" vertex="1" parent="CAoHv5BWE8wGaD9P9ZTP-1">
          <mxGeometry y="160" width="60" height="40" as="geometry" />
        </mxCell>
        <mxCell id="CAoHv5BWE8wGaD9P9ZTP-11" value="" style="shape=partialRectangle;html=1;whiteSpace=wrap;connectable=0;overflow=hidden;fillColor=none;top=0;left=0;bottom=0;right=0;" vertex="1" parent="CAoHv5BWE8wGaD9P9ZTP-10">
          <mxGeometry width="60" height="40" as="geometry" />
        </mxCell>
        <mxCell id="CAoHv5BWE8wGaD9P9ZTP-12" value="" style="shape=partialRectangle;html=1;whiteSpace=wrap;collapsible=0;dropTarget=0;pointerEvents=0;fillColor=none;top=0;left=0;bottom=0;right=0;points=[[0,0.5],[1,0.5]];portConstraint=eastwest;" vertex="1" parent="CAoHv5BWE8wGaD9P9ZTP-1">
          <mxGeometry y="200" width="60" height="40" as="geometry" />
        </mxCell>
        <mxCell id="CAoHv5BWE8wGaD9P9ZTP-13" value="&lt;font color=&quot;#b3b3b3&quot;&gt;_global&lt;/font&gt;" style="shape=partialRectangle;html=1;whiteSpace=wrap;connectable=0;overflow=hidden;fillColor=none;top=0;left=0;bottom=0;right=0;fontFamily=Architects Daughter;fontSource=https%3A%2F%2Ffonts.googleapis.com%2Fcss%3Ffamily%3DArchitects%2BDaughter;fontColor=#FFFFFF;" vertex="1" parent="CAoHv5BWE8wGaD9P9ZTP-12">
          <mxGeometry width="60" height="40" as="geometry" />
        </mxCell>
        <mxCell id="CAoHv5BWE8wGaD9P9ZTP-14" value="String Table" style="text;html=1;align=center;verticalAlign=middle;resizable=0;points=[];autosize=1;fontFamily=Architects Daughter;fontColor=#E4FDE1;" vertex="1" parent="1">
          <mxGeometry x="690" y="40" width="80" height="20" as="geometry" />
        </mxCell>
      </root>
    </mxGraphModel>
  </diagram>
</mxfile>
